<svg id="visual" viewBox="0 0 1920 1080" width="1920" height="1080" xmlns="http://www.w3.org/2000/svg" xmlns:xlink="http://www.w3.org/1999/xlink" version="1.1"><rect x="0" y="0" width="1920" height="1080" fill="#F7901E"></rect><defs><linearGradient id="grad1_0" x1="43.8%" y1="100%" x2="100%" y2="0%"><stop offset="14.444444444444446%" stop-color="#f7901e" stop-opacity="1"></stop><stop offset="85.55555555555554%" stop-color="#f7901e" stop-opacity="1"></stop></linearGradient></defs><defs><linearGradient id="grad2_0" x1="0%" y1="100%" x2="56.3%" y2="0%"><stop offset="14.444444444444446%" stop-color="#f7901e" stop-opacity="1"></stop><stop offset="85.55555555555554%" stop-color="#f7901e" stop-opacity="1"></stop></linearGradient></defs><g transform="translate(1920, 1080)"><path d="M-648 0C-633.3 -52.4 -618.6 -104.8 -610.5 -163.6C-602.3 -222.3 -600.6 -287.3 -561.2 -324C-521.8 -360.7 -444.6 -369 -395.3 -395.3C-345.9 -421.6 -324.3 -465.9 -290 -502.3C-255.7 -538.7 -208.6 -567.2 -158.1 -590.2C-107.7 -613.1 -53.8 -630.6 0 -648L0 0Z" fill="#000000"></path></g><g transform="translate(0, 0)"><path d="M648 0C635.9 54.5 623.8 108.9 608.5 163.1C593.2 217.2 574.7 271 544.7 314.5C514.7 358 473.2 391.3 437.7 437.7C402.2 484.1 372.7 543.8 324 561.2C275.3 578.6 207.6 553.8 150.4 561.2C93.2 568.6 46.6 608.3 0 648L0 0Z" fill="#000000"></path></g></svg>